<?xml version="1.0" encoding="UTF-8"?>
<!--Generator: Apple Native CoreSVG 232.5-->
<!DOCTYPE svg
PUBLIC "-//W3C//DTD SVG 1.1//EN"
       "http://www.w3.org/Graphics/SVG/1.1/DTD/svg11.dtd">
<svg version="1.1" xmlns="http://www.w3.org/2000/svg" xmlns:xlink="http://www.w3.org/1999/xlink" width="82.8281" height="112.172">
 <g>
  <rect height="112.172" opacity="0" width="82.8281" x="0" y="0"/>
  <path d="M0 59.4375C0 82.4531 18.4688 100.922 41.4375 100.922C64.4062 100.922 82.8281 82.4531 82.8281 59.4375C82.8281 36.4688 64.4062 18.0469 41.4375 18.0469C38.5312 18.0469 35.7656 18.375 33.3281 18.8438L45.7969 6.51562C46.5 5.76562 46.8281 4.82812 46.8281 3.84375C46.8281 1.6875 45.2344 0 43.1719 0C42 0 41.0625 0.375 40.4062 1.125L21.0938 20.7188C20.3438 21.4688 19.9219 22.5 19.9219 23.5312C19.9219 24.6094 20.2969 25.5469 21.0938 26.3438L40.4062 45.75C41.1094 46.4531 42 46.8281 43.125 46.8281C45.2344 46.8281 46.8281 45.2344 46.8281 43.0781C46.8281 42.0938 46.5 41.1562 45.75 40.4062L31.7812 26.5312C34.5 25.875 37.8281 25.5938 41.4375 25.5938C60.2344 25.5938 75.2812 40.6406 75.2812 59.4375C75.2812 78.2812 60.2344 93.375 41.4375 93.375C22.6406 93.375 7.54688 78.2812 7.54688 59.4375C7.54688 57.1875 6.14062 55.5469 3.89062 55.5469C1.59375 55.5469 0 57.1875 0 59.4375Z" fill="#ffffff"/>
 </g>
</svg>
