<?xml version="1.0" encoding="UTF-8"?>
<!--Generator: Apple Native CoreSVG 232.5-->
<!DOCTYPE svg
PUBLIC "-//W3C//DTD SVG 1.1//EN"
       "http://www.w3.org/Graphics/SVG/1.1/DTD/svg11.dtd">
<svg version="1.1" xmlns="http://www.w3.org/2000/svg" xmlns:xlink="http://www.w3.org/1999/xlink" width="94.4531" height="79.9219">
 <g>
  <rect height="79.9219" opacity="0" width="94.4531" x="0" y="0"/>
  <path d="M64.0312 79.9219C70.2188 79.9219 75.2812 74.8594 75.2812 68.6719C75.2812 62.4844 70.2188 57.4219 64.0312 57.4219C57.8438 57.4219 52.7344 62.4844 52.7344 68.6719C52.7344 74.8594 57.8438 79.9219 64.0312 79.9219ZM64.0312 74.1562C60.9375 74.1562 58.5469 71.7188 58.5469 68.6719C58.5469 65.5312 60.9375 63.1875 64.0312 63.1875C67.125 63.1875 69.5156 65.5312 69.5156 68.6719C69.5156 71.7188 67.125 74.1562 64.0312 74.1562ZM56.5781 64.875L3.75 64.875C1.64062 64.875 0 66.5625 0 68.6719C0 70.7812 1.64062 72.4219 3.75 72.4219L56.5781 72.4219ZM90.8438 64.875L72.1875 64.875L72.1875 72.4219L90.8438 72.4219C92.7656 72.4219 94.4531 70.7812 94.4531 68.6719C94.4531 66.5625 92.7656 64.875 90.8438 64.875ZM30.9375 51.3281C37.125 51.3281 42.1875 46.2188 42.1875 40.0312C42.1875 33.8438 37.125 28.7812 30.9375 28.7812C24.75 28.7812 19.6875 33.8438 19.6875 40.0312C19.6875 46.2188 24.75 51.3281 30.9375 51.3281ZM30.9375 45.5156C27.8906 45.5156 25.4531 43.0781 25.4531 40.0312C25.4531 36.9375 27.8906 34.5469 30.9375 34.5469C34.0312 34.5469 36.4219 36.9375 36.4219 40.0312C36.4219 43.0781 34.0312 45.5156 30.9375 45.5156ZM3.5625 36.2344C1.64062 36.2344 0 37.9219 0 40.0312C0 42.1406 1.64062 43.7812 3.5625 43.7812L22.875 43.7812L22.875 36.2344ZM90.6562 36.2344L38.3906 36.2344L38.3906 43.7812L90.6562 43.7812C92.7656 43.7812 94.4531 42.1406 94.4531 40.0312C94.4531 37.9219 92.7656 36.2344 90.6562 36.2344ZM64.0312 22.6406C70.2188 22.6406 75.2812 17.5781 75.2812 11.3906C75.2812 5.20312 70.2188 0.09375 64.0312 0.09375C57.8438 0.09375 52.7344 5.20312 52.7344 11.3906C52.7344 17.5781 57.8438 22.6406 64.0312 22.6406ZM64.0312 16.875C60.9375 16.875 58.5469 14.4375 58.5469 11.3438C58.5469 8.25 60.9375 5.85938 64.0312 5.85938C67.125 5.85938 69.5156 8.25 69.5156 11.3438C69.5156 14.4375 67.125 16.875 64.0312 16.875ZM56.8125 7.64062L3.75 7.64062C1.64062 7.64062 0 9.28125 0 11.3906C0 13.5 1.64062 15.1875 3.75 15.1875L56.8125 15.1875ZM90.8438 7.64062L71.5312 7.64062L71.5312 15.1875L90.8438 15.1875C92.7656 15.1875 94.4531 13.5 94.4531 11.3906C94.4531 9.28125 92.7656 7.64062 90.8438 7.64062Z" fill="#ffffff"/>
 </g>
</svg>
