<?xml version="1.0" encoding="UTF-8"?>
<!--Generator: Apple Native CoreSVG 232.5-->
<!DOCTYPE svg
PUBLIC "-//W3C//DTD SVG 1.1//EN"
       "http://www.w3.org/Graphics/SVG/1.1/DTD/svg11.dtd">
<svg version="1.1" xmlns="http://www.w3.org/2000/svg" xmlns:xlink="http://www.w3.org/1999/xlink" width="98.2768" height="89.6134">
 <g>
  <rect height="89.6134" opacity="0" width="98.2768" x="0" y="0"/>
  <path d="M11.9665 71.9707L15.7165 78.4395L49.1384 61.6582L82.5603 78.4395L86.3572 71.9707L52.9353 55.1895L52.9353 15.627L45.3884 15.627L45.3884 55.1895ZM0.529027 78.5801C-0.783473 81.5801 0.388402 83.502 3.5759 83.877L22.9822 85.9864C27.2947 86.502 29.8259 83.8301 27.529 79.8926L15.9509 59.8301C13.7478 55.9864 10.1384 56.7832 8.4509 60.7207ZM97.7478 78.5801L89.8728 60.7207C88.1384 56.7832 84.5759 55.9864 82.3728 59.8301L70.7478 79.8926C68.4509 83.8301 71.029 86.502 75.2947 85.9864L94.7009 83.877C97.8884 83.502 99.0603 81.5801 97.7478 78.5801ZM46.0447 1.98637L34.5603 17.6895C31.9822 21.1582 33.0603 24.7207 37.5603 24.7207L60.6697 24.7207C65.2634 24.7207 66.2478 21.2051 63.6697 17.6895L52.1384 1.98637C50.1697-0.638633 48.0134-0.685508 46.0447 1.98637Z" fill="#ffffff"/>
 </g>
</svg>
