<?xml version="1.0" encoding="UTF-8"?>
<!--Generator: Apple Native CoreSVG 232.5-->
<!DOCTYPE svg
PUBLIC "-//W3C//DTD SVG 1.1//EN"
       "http://www.w3.org/Graphics/SVG/1.1/DTD/svg11.dtd">
<svg version="1.1" xmlns="http://www.w3.org/2000/svg" xmlns:xlink="http://www.w3.org/1999/xlink" width="63.9844" height="94.4531">
 <g>
  <rect height="94.4531" opacity="0" width="63.9844" x="0" y="0"/>
  <path d="M10.5469 91.9688L53.4375 91.9688C60.3281 91.9688 63.9844 88.2188 63.9844 80.8125L63.9844 48.5156C63.9844 41.1094 60.3281 37.4062 53.4375 37.4062L10.5469 37.4062C3.65625 37.4062 0 41.1094 0 48.5156L0 80.8125C0 88.2188 3.65625 91.9688 10.5469 91.9688ZM8.20312 41.0156L15.6562 41.0156L15.6562 25.1719C15.6562 13.3594 23.2031 7.07812 31.9688 7.07812C40.7344 7.07812 48.375 13.3594 48.375 25.1719L48.375 41.0156L55.7812 41.0156L55.7812 26.2031C55.7812 8.57812 44.25 0 31.9688 0C19.7344 0 8.20312 8.57812 8.20312 26.2031Z" fill="#ffffff"/>
 </g>
</svg>
