<?xml version="1.0" encoding="UTF-8"?>
<!--Generator: Apple Native CoreSVG 232.5-->
<!DOCTYPE svg
PUBLIC "-//W3C//DTD SVG 1.1//EN"
       "http://www.w3.org/Graphics/SVG/1.1/DTD/svg11.dtd">
<svg version="1.1" xmlns="http://www.w3.org/2000/svg" xmlns:xlink="http://www.w3.org/1999/xlink" width="122.812" height="76.1719">
 <g>
  <rect height="76.1719" opacity="0" width="122.812" x="0" y="0"/>
  <path d="M22.7812 76.125L73.125 76.125C82.5469 76.125 88.1719 70.6875 88.1719 61.2656L88.1719 14.8125C88.1719 5.4375 83.0156 0 73.5938 0L22.7812 0C13.7812 0 7.73438 5.4375 7.73438 14.8125L7.73438 61.2656C7.73438 70.6875 13.3594 76.125 22.7812 76.125ZM94.5469 51.8906L111.609 66.6562C113.203 68.0625 115.078 68.9531 116.766 68.9531C120.422 68.9531 122.812 66.2812 122.812 62.4375L122.812 13.6875C122.812 9.84375 120.422 7.17188 116.766 7.17188C115.078 7.17188 113.203 8.0625 111.609 9.46875L94.5469 24.1875Z" fill="#ffffff"/>
 </g>
</svg>
