<?xml version="1.0" encoding="UTF-8"?>
<!--Generator: Apple Native CoreSVG 232.5-->
<!DOCTYPE svg
PUBLIC "-//W3C//DTD SVG 1.1//EN"
       "http://www.w3.org/Graphics/SVG/1.1/DTD/svg11.dtd">
<svg version="1.1" xmlns="http://www.w3.org/2000/svg" xmlns:xlink="http://www.w3.org/1999/xlink" width="105.328" height="86.0156">
 <g>
  <rect height="86.0156" opacity="0" width="105.328" x="0" y="0"/>
  <path d="M105.328 42.9844C105.328 41.3906 104.766 39.6562 102.938 37.9219L65.9531 3.32812C63.4688 0.984375 61.9219 0 59.625 0C56.3438 0 54 2.57812 54 5.71875L54 23.4375L15.9844 23.4375C8.57812 23.4375 4.26562 27.6562 4.26562 34.9219L4.26562 51.0938C4.26562 58.3594 8.57812 62.5781 15.9844 62.5781L54 62.5781L54 80.4844C54 83.625 56.3438 85.9688 59.5312 85.9688C61.8281 85.9688 63.7031 85.0312 65.9531 82.9219L102.938 48C104.719 46.3125 105.328 44.5312 105.328 42.9844ZM96.8906 42.9844C96.8906 43.2656 96.7969 43.5 96.4219 43.875L63 75.4688C62.7656 75.75 62.4844 75.8906 62.2031 75.8906C61.8281 75.8906 61.5469 75.6094 61.5469 75.1875L61.5469 57.0469C61.5469 55.9688 61.0781 55.5 60 55.5L16.0781 55.5C13.0781 55.5 11.3438 53.7656 11.3438 50.7188L11.3438 35.2969C11.3438 32.25 13.0781 30.5156 16.0781 30.5156L60 30.5156C61.0781 30.5156 61.5469 30.0469 61.5469 28.9688L61.5469 10.3594C61.5469 9.98438 61.8281 9.70312 62.25 9.70312C62.5312 9.70312 62.8125 9.89062 63.0469 10.0781L96.4219 42.0938C96.75 42.4219 96.8906 42.7031 96.8906 42.9844Z" fill="#ffffff"/>
 </g>
</svg>
