<?xml version="1.0" encoding="UTF-8"?>
<!--Generator: Apple Native CoreSVG 232.5-->
<!DOCTYPE svg
PUBLIC "-//W3C//DTD SVG 1.1//EN"
       "http://www.w3.org/Graphics/SVG/1.1/DTD/svg11.dtd">
<svg version="1.1" xmlns="http://www.w3.org/2000/svg" xmlns:xlink="http://www.w3.org/1999/xlink" width="96.4688" height="94.2656">
 <g>
  <rect height="94.2656" opacity="0" width="96.4688" x="0" y="0"/>
  <path d="M10.5469 91.875L53.4375 91.875C60.3281 91.875 63.9844 88.125 63.9844 80.7188L63.9844 48.4219C63.9844 41.0625 60.3281 37.3125 53.4375 37.3125L10.5469 37.3125C3.65625 37.3125 0 41.0625 0 48.4219L0 80.7188C0 88.125 3.65625 91.875 10.5469 91.875ZM48.8906 40.9688L56.2969 40.9688L56.2969 25.1719C56.2969 13.3125 63.8906 7.07812 72.6562 7.07812C81.4219 7.07812 89.0156 13.3125 89.0156 25.1719L89.0156 35.5781C89.0156 38.3438 90.6562 39.75 92.7656 39.75C94.7812 39.75 96.4688 38.4844 96.4688 35.5781L96.4688 26.1562C96.4688 8.53125 84.8906 0 72.6562 0C60.375 0 48.8906 8.53125 48.8906 26.1562Z" fill="#ffffff"/>
 </g>
</svg>
