<?xml version="1.0" encoding="UTF-8"?>
<!--Generator: Apple Native CoreSVG 232.5-->
<!DOCTYPE svg
PUBLIC "-//W3C//DTD SVG 1.1//EN"
       "http://www.w3.org/Graphics/SVG/1.1/DTD/svg11.dtd">
<svg version="1.1" xmlns="http://www.w3.org/2000/svg" xmlns:xlink="http://www.w3.org/1999/xlink" width="105.328" height="86.0156">
 <g>
  <rect height="86.0156" opacity="0" width="105.328" x="0" y="0"/>
  <path d="M105.328 42.9844C105.328 41.3906 104.766 39.6562 102.938 37.9219L65.9531 3.32812C63.4688 0.984375 61.9219 0 59.625 0C56.3438 0 54 2.57812 54 5.71875L54 24.5156L15.0469 24.5156C8.25 24.5156 4.26562 28.3594 4.26562 35.0625L4.26562 50.9531C4.26562 57.6562 8.25 61.5 15.0469 61.5L54 61.5L54 80.4844C54 83.625 56.3438 85.9688 59.5312 85.9688C61.8281 85.9688 63.7031 85.0312 65.9531 82.9219L102.938 48C104.719 46.3125 105.328 44.5312 105.328 42.9844Z" fill="#ffffff"/>
 </g>
</svg>
