<?xml version="1.0" encoding="UTF-8"?>
<!--Generator: Apple Native CoreSVG 232.5-->
<!DOCTYPE svg
PUBLIC "-//W3C//DTD SVG 1.1//EN"
       "http://www.w3.org/Graphics/SVG/1.1/DTD/svg11.dtd">
<svg version="1.1" xmlns="http://www.w3.org/2000/svg" xmlns:xlink="http://www.w3.org/1999/xlink" width="123.656" height="77.1094">
 <g>
  <rect height="77.1094" opacity="0" width="123.656" x="0" y="0"/>
  <path d="M25.9688 77.0625L74.9531 77.0625C86.3906 77.0625 93.2344 70.4062 93.2344 58.9688L93.2344 18.0469C93.2344 6.65625 86.3906 0 74.9531 0L25.9688 0C15.0469 0 7.6875 6.65625 7.6875 18.0469L7.6875 58.9688C7.6875 70.4062 14.5312 77.0625 25.9688 77.0625ZM27.2812 69.9844C19.5938 69.9844 15.2344 66 15.2344 57.8906L15.2344 19.1719C15.2344 11.0156 19.5938 7.03125 27.2812 7.03125L73.6406 7.03125C81.2812 7.03125 85.6875 11.0156 85.6875 19.1719L85.6875 57.8906C85.6875 66 81.2812 69.9844 73.6406 69.9844ZM92.1562 25.4062L92.1562 34.3125L114.469 15.8906C114.891 15.5625 115.172 15.3281 115.594 15.3281C116.156 15.3281 116.391 15.7969 116.391 16.4531L116.391 60.6094C116.391 61.2656 116.156 61.6875 115.594 61.6875C115.172 61.6875 114.891 61.4531 114.469 61.1719L92.1562 42.75L92.1562 51.6094L110.953 67.5469C112.828 69.0938 114.891 70.1719 116.812 70.1719C120.938 70.1719 123.656 67.125 123.656 62.7656L123.656 14.2969C123.656 9.9375 120.938 6.89062 116.812 6.89062C114.891 6.89062 112.828 7.96875 110.953 9.51562Z" fill="#ffffff"/>
 </g>
</svg>
