<?xml version="1.0" encoding="UTF-8"?>
<!--Generator: Apple Native CoreSVG 232.5-->
<!DOCTYPE svg
PUBLIC "-//W3C//DTD SVG 1.1//EN"
       "http://www.w3.org/Graphics/SVG/1.1/DTD/svg11.dtd">
<svg version="1.1" xmlns="http://www.w3.org/2000/svg" xmlns:xlink="http://www.w3.org/1999/xlink" width="103.359" height="98.4844">
 <g>
  <rect height="98.4844" opacity="0" width="103.359" x="0" y="0"/>
  <path d="M20.2593 43.4138C12.6198 47.8034 7.5 56.041 7.5 65.4375C7.5 79.5938 18.8906 90.9844 33 90.9844C37.6861 90.9844 42.0807 89.7143 45.843 87.4766C47.5604 89.4445 49.5316 91.1798 51.6955 92.6555C46.3886 96.335 39.946 98.4844 33 98.4844C14.8125 98.4844 0 83.6719 0 65.4375C0 52.3784 7.67632 41.044 18.7813 35.7526C18.9456 38.4143 19.4572 40.9795 20.2593 43.4138ZM66 65.4375C66 73.9174 62.8066 81.6572 57.5287 87.486C55.3335 86.234 53.3592 84.6458 51.6739 82.7854C55.8873 78.2773 58.465 72.2263 58.4935 65.5719C61.0911 65.0341 63.5741 64.1836 65.8864 63.0326ZM64.3875 55.3747C62.2544 56.6317 59.911 57.5649 57.4202 58.1136C56.292 54.3533 54.3078 50.9644 51.6906 48.1696C53.3727 46.3197 55.3419 44.7375 57.5308 43.4883C60.6064 46.8796 62.9755 50.9152 64.3875 55.3747ZM51.6853 38.3157C49.525 39.7874 47.5573 41.5174 45.8427 43.478C42.0804 41.2492 37.6859 39.9844 33 39.9844C31.0186 39.9844 29.0908 40.2099 27.2494 40.6585C26.5351 38.327 26.1562 35.8491 26.1562 33.2812C26.1562 33.2565 26.1563 33.2318 26.16 33.2079C28.3652 32.7307 30.6545 32.4844 33 32.4844C39.9327 32.4844 46.375 34.6366 51.6853 38.3157Z" fill="#000000" fill-opacity="0.2125"/>
  <path d="M103.359 65.4375C103.359 83.6719 88.5469 98.4844 70.4062 98.4844C52.1719 98.4844 37.3594 83.6719 37.3594 65.4375C37.3594 64.6259 37.389 63.821 37.4816 63.0326C39.7916 64.1793 42.2714 65.0277 44.8658 65.5644C44.9287 79.6626 56.3396 90.9844 70.4062 90.9844C84.5156 90.9844 95.8594 79.5469 95.8594 65.4375C95.8594 55.9988 90.7067 47.7638 83.0676 43.3879C83.8644 40.9517 84.3723 38.3854 84.5331 35.7224C95.6541 41.0012 103.359 52.3537 103.359 65.4375ZM77.1515 33.1875C77.1562 33.218 77.1562 33.2496 77.1562 33.2812C77.1562 35.8433 76.7807 38.3156 76.0717 40.6423C74.2543 40.2046 72.3552 39.9844 70.4062 39.9844C58.8608 39.9844 49.1044 47.6427 45.9497 58.1093C43.4491 57.559 41.0965 56.6234 38.9556 55.3634C43.224 42.1159 55.7026 32.4844 70.4062 32.4844C72.7173 32.4844 74.9744 32.7248 77.1515 33.1875Z" fill="#000000" fill-opacity="0.425"/>
  <path d="M51.7031 66.2812C69.8906 66.2812 84.6562 51.5156 84.6562 33.2812C84.6562 15.0938 69.8906 0.28125 51.7031 0.28125C33.4688 0.28125 18.6562 15.0938 18.6562 33.2812C18.6562 51.5156 33.4688 66.2812 51.7031 66.2812ZM51.7031 58.7812C37.5938 58.7812 26.1562 47.3906 26.1562 33.2812C26.1562 19.2188 37.5938 7.78125 51.7031 7.78125C65.7188 7.78125 77.1562 19.2188 77.1562 33.2812C77.1562 47.3906 65.7656 58.7812 51.7031 58.7812Z" fill="#000000" fill-opacity="0.85"/>
 </g>
</svg>
