<?xml version="1.0" encoding="UTF-8"?>
<!--Generator: Apple Native CoreSVG 232.5-->
<!DOCTYPE svg
PUBLIC "-//W3C//DTD SVG 1.1//EN"
       "http://www.w3.org/Graphics/SVG/1.1/DTD/svg11.dtd">
<svg version="1.1" xmlns="http://www.w3.org/2000/svg" xmlns:xlink="http://www.w3.org/1999/xlink" width="57.1875" height="76.3594">
 <g>
  <rect height="76.3594" opacity="0" width="57.1875" x="0" y="0"/>
  <path d="M6.23438 76.3594L16.9219 76.3594C21 76.3594 23.1562 74.2031 23.1562 70.0781L23.1562 6.23438C23.1562 1.96875 21 0 16.9219 0L6.23438 0C2.15625 0 0 2.15625 0 6.23438L0 70.0781C0 74.2031 2.15625 76.3594 6.23438 76.3594ZM40.3125 76.3594L50.9531 76.3594C55.0781 76.3594 57.1875 74.2031 57.1875 70.0781L57.1875 6.23438C57.1875 1.96875 55.0781 0 50.9531 0L40.3125 0C36.1875 0 34.0312 2.15625 34.0312 6.23438L34.0312 70.0781C34.0312 74.2031 36.1875 76.3594 40.3125 76.3594Z" fill="#000000" fill-opacity="0.85"/>
 </g>
</svg>
