<?xml version="1.0" encoding="UTF-8"?>
<!--Generator: Apple Native CoreSVG 232.5-->
<!DOCTYPE svg
PUBLIC "-//W3C//DTD SVG 1.1//EN"
       "http://www.w3.org/Graphics/SVG/1.1/DTD/svg11.dtd">
<svg version="1.1" xmlns="http://www.w3.org/2000/svg" xmlns:xlink="http://www.w3.org/1999/xlink" width="91.7812" height="91.8281">
 <g>
  <rect height="91.8281" opacity="0" width="91.7812" x="0" y="0"/>
  <path d="M3.75 29.9062C6.23438 29.9062 7.54688 28.5 7.54688 26.0625L7.54688 15C7.54688 10.125 10.125 7.64062 14.8125 7.64062L26.1562 7.64062C28.6406 7.64062 30 6.28125 30 3.84375C30 1.40625 28.6406 0.09375 26.1562 0.09375L14.7188 0.09375C4.92188 0.09375 0 4.92188 0 14.5781L0 26.0625C0 28.5 1.35938 29.9062 3.75 29.9062ZM87.9844 29.9062C90.4688 29.9062 91.7812 28.5 91.7812 26.0625L91.7812 14.5781C91.7812 4.92188 86.8594 0.09375 77.0625 0.09375L65.5781 0.09375C63.1406 0.09375 61.7812 1.40625 61.7812 3.84375C61.7812 6.28125 63.1406 7.64062 65.5781 7.64062L76.9219 7.64062C81.5625 7.64062 84.2344 10.125 84.2344 15L84.2344 26.0625C84.2344 28.5 85.5938 29.9062 87.9844 29.9062ZM14.7188 91.8281L26.1562 91.8281C28.6406 91.8281 30 90.4688 30 88.0781C30 85.6406 28.6406 84.2812 26.1562 84.2812L14.8125 84.2812C10.125 84.2812 7.54688 81.7969 7.54688 76.9219L7.54688 65.8594C7.54688 63.375 6.1875 62.0156 3.75 62.0156C1.3125 62.0156 0 63.375 0 65.8594L0 77.2969C0 87 4.92188 91.8281 14.7188 91.8281ZM65.5781 91.8281L77.0625 91.8281C86.8594 91.8281 91.7812 86.9531 91.7812 77.2969L91.7812 65.8594C91.7812 63.375 90.4219 62.0156 87.9844 62.0156C85.5469 62.0156 84.2344 63.375 84.2344 65.8594L84.2344 76.9219C84.2344 81.7969 81.5625 84.2812 76.9219 84.2812L65.5781 84.2812C63.1406 84.2812 61.7812 85.6406 61.7812 88.0781C61.7812 90.4688 63.1406 91.8281 65.5781 91.8281Z" fill="#ffffff"/>
 </g>
</svg>
