<?xml version="1.0" encoding="UTF-8"?>
<!--Generator: Apple Native CoreSVG 232.5-->
<!DOCTYPE svg
PUBLIC "-//W3C//DTD SVG 1.1//EN"
       "http://www.w3.org/Graphics/SVG/1.1/DTD/svg11.dtd">
<svg version="1.1" xmlns="http://www.w3.org/2000/svg" xmlns:xlink="http://www.w3.org/1999/xlink" width="114.669" height="95.6719">
 <g>
  <rect height="95.6719" opacity="0" width="114.669" x="0" y="0"/>
  <path d="M0.943825 47.9531C-0.8843 50.5312-0.0405504 52.8281 3.33445 52.8281L9.8032 52.8281C12.3344 76.6875 32.9126 95.625 57.3344 95.625C71.6313 95.625 84.5688 89.1094 93.3813 78.9844C95.1157 76.9688 94.8813 74.4375 93.0532 73.125C91.2251 71.8125 88.9751 72.2812 87.4751 74.0156C80.2094 82.4062 69.4282 87.6562 57.3344 87.6562C36.8969 87.6562 20.2563 72.5156 17.8657 52.8281L24.8501 52.8281C28.1782 52.8281 29.0219 50.5312 27.2407 48L16.7407 33.0469C15.2407 30.8906 12.9907 30.8438 11.4438 33.0469ZM21.3344 16.6406C19.5532 18.6562 19.7876 21.1406 21.6626 22.4531C23.4907 23.7656 25.6938 23.3438 27.2407 21.6094C34.5532 13.2656 45.3344 7.96875 57.3344 7.96875C77.7251 7.96875 94.3657 23.1094 96.8032 42.8438L89.8188 42.8438C86.4907 42.8438 85.6469 45.0938 87.4282 47.6719L97.9282 62.625C99.4282 64.7812 101.678 64.8281 103.225 62.625L113.678 47.7188C115.553 45.0938 114.663 42.8438 111.288 42.8438L104.866 42.8438C102.288 18.9844 81.7563 0 57.3344 0C43.0376 0 30.1469 6.46875 21.3344 16.6406Z" fill="#ffffff"/>
 </g>
</svg>
